#!OML:ASF F:\VICON\USERDATA\INSTALL\rory3\rory3.ASF
:FULLY-SPECIFIED
:DEGREES
189
root -2.00563 22.5189 23.064 22.6422 20.6027 1.48156
lowerback -15.4279 -6.63111 6.30389
upperback -8.59082 -9.54169 3.50881
thorax -1.0057 -4.91684 -1.11526
lowerneck -12.1971 -2.90042 -7.49651
upperneck 22.4902 -2.59884 0.79054
head 9.20999 -1.77027 1.22609
rclavicle 5.2094e-014 -4.77083e-015
rhumerus 4.62563 9.36734 0.908731
rradius 32.3578
rwrist -4.414
rhand -20.9599 -49.5123
rfingers 7.12502
rthumb 5.41303 280.577
lclavicle 5.2094e-014 -4.77083e-015
lhumerus 2.88999 -17.1147 0.968936
lradius 29.7609
lwrist 8.39049
lhand -31.0132 -33.4072
lfingers 7.12502
lthumb -4.29585 -3.47077
rfemur -89.501 -8.80378 7.93285
rtibia 37.7727
rfoot 26.5991 -20.5507
rtoes -4.68443
lfemur 12.7261 8.67355 -5.69565
ltibia 69.6265
lfoot 29.7307 -1.23476
ltoes -0.735365
190
root -2.00688 22.4967 23.5431 22.7894 20.6417 1.81291
lowerback -16.3004 -6.49529 6.35126
upperback -8.75353 -9.41473 3.24814
thorax -0.772129 -4.85479 -1.48891
lowerneck -11.2429 -2.91312 -7.56965
upperneck 22.3932 -2.67121 0.721455
head 9.00278 -1.81834 1.21737
rclavicle -1.10723e-013 6.12257e-014
rhumerus 2.54791 10.3714 1.39577
rradius 31.8431
rwrist -4.8241
rhand -20.3443 -48.8507
rfingers 7.12502
rthumb 6.00746 281.254
lclavicle -1.10723e-013 6.12257e-014
lhumerus 0.103695 -17.5104 1.11885
lradius 29.2786
lwrist 7.81745
lhand -31.331 -33.4891
lfingers 7.12502
lthumb -4.60274 -3.55907
rfemur -88.0643 -8.6693 8.02188
rtibia 37.6468
rfoot 26.4723 -20.4658
rtoes -5.01112
lfemur 12.7891 9.05282 -4.89286
ltibia 72.3851
lfoot 29.2558 -0.262367
ltoes 0.77804
191
root -2.01181 22.4581 24.0158 22.8457 20.5285 2.17428
lowerback -16.809 -6.34625 6.23923
upperback -8.83727 -9.22839 3.05791
thorax -0.599549 -4.75706 -1.65855
lowerneck -11.1355 -3.00047 -7.89764
upperneck 22.7442 -2.7839 0.939655
head 9.11943 -1.88341 1.33464
rclavicle 8.94531e-015 3.97569e-015
rhumerus 0.471092 11.1237 1.90753
rradius 31.5745
rwrist -5.00882
rhand -20.8254 -48.2376
rfingers 7.12502
rthumb 5.54292 281.855
lclavicle 8.94531e-015 3.97569e-015
lhumerus -2.84826 -17.3275 1.4618
lradius 28.9046
lwrist 7.14793
lhand -31.8697 -33.6851
lfingers 7.12502
lthumb -5.12294 -3.76698
rfemur -86.5326 -8.44736 8.15035
rtibia 37.4731
rfoot 26.0635 -21.193
rtoes -3.64168
lfemur 13.065 9.48444 -4.12935
ltibia 74.9566
lfoot 28.6632 0.387824
ltoes 2.79712
192
root -2.01807 22.4082 24.4809 22.8515 20.3423 2.66383
lowerback -17.0063 -6.18798 6.00293
upperback -8.85695 -8.99364 2.83534
thorax -0.500258 -4.63382 -1.75447
lowerneck -11.9075 -3.23413 -8.05031
upperneck 23.533 -2.96697 0.800916
head 9.55362 -2.01098 1.27991
rclavicle -4.25648e-014 -3.18055e-015
rhumerus -1.28 11.0396 2.18048
rradius 30.819
rwrist -4.40065
rhand -21.0132 -48.329
rfingers 7.12502
rthumb 5.36159 281.759
lclavicle -4.25648e-014 -3.18055e-015
lhumerus -5.62073 -16.8025 1.79356
lradius 28.422
lwrist 6.51771
lhand -32.2917 -33.0408
lfingers 7.12502
lthumb -5.53035 -3.13297
rfemur -84.7639 -8.11148 7.86654
rtibia 37.2059
rfoot 25.7715 -21.6518
rtoes -2.88383
lfemur 13.4872 9.82965 -3.55802
ltibia 77.3441
lfoot 28.1165 1.00416
ltoes 5.91165
193
root -2.03539 22.3429 24.9479 23.3133 19.8196 3.60484
lowerback -17.4006 -6.08986 5.06688
upperback -9.18405 -8.72843 2.5917
thorax -0.520046 -4.48075 -1.49297
lowerneck -12.2338 -3.46861 -7.98108
upperneck 24.2969 -3.12971 0.217615
head 9.88938 -2.16098 1.03787
rclavicle -1.65985e-014 2.78299e-014
rhumerus -2.95744 11.5514 2.45834
rradius 30.1429
rwrist -4.28616
rhand -19.8849 -49.5973
rfingers 7.12502
rthumb 6.45093 280.521
lclavicle -1.65985e-014 2.78299e-014
lhumerus -8.59753 -16.713 2.12217
lradius 28.0236
lwrist 6.08782
lhand -32.7428 -29.6116
lfingers 7.12502
lthumb -5.96586 0.284368
rfemur -83.2455 -7.45332 6.43963
rtibia 36.8635
rfoot 25.596 -21.9334
rtoes -2.55542
lfemur 13.4796 10.3982 -3.63284
ltibia 79.6842
lfoot 27.3287 1.13736
ltoes 8.58989
194
root -2.05049 22.2645 25.4138 24.069 19.2157 4.66667
lowerback -18.3386 -6.04034 3.98276
upperback -9.38937 -8.52809 2.35294
thorax -0.119471 -4.34054 -1.22509
lowerneck -11.704 -3.48083 -8.4195
upperneck 24.2265 -3.14994 0.411063
head 9.77838 -2.1881 1.18379
rclavicle 3.63279e-014 7.15625e-015
rhumerus -4.93871 12.7805 2.78199
rradius 30.2469
rwrist -5.40053
rhand -19.6024 -51.088
rfingers 7.12502
rthumb 6.72364 279.039
lclavicle 3.63279e-014 7.15625e-015
lhumerus -11.6611 -16.4001 2.33099
lradius 27.6418
lwrist 5.86865
lhand -32.5919 -32.7159
lfingers 7.12502
lthumb -5.82017 -2.81587
rfemur -82.0127 -7.00727 5.17867
rtibia 36.4591
rfoot 25.1062 -22.6878
rtoes -0.322628
lfemur 13.2158 11.063 -3.9413
ltibia 81.9046
lfoot 26.2851 1.59912
ltoes 10.8622
195
root -2.05659 22.1772 25.8731 24.5428 18.8501 5.42635
lowerback -19.2985 -5.97006 3.38304
upperback -9.29434 -8.37151 2.10801
thorax 0.52912 -4.23093 -1.24789
lowerneck -11.5079 -3.36624 -8.61178
upperneck 24.1046 -2.99863 0.543902
head 9.6964 -2.11754 1.28382
rclavicle -4.96962e-015 -2.46493e-014
rhumerus -7.02941 13.2376 2.99442
rradius 30.1413
rwrist -5.90511
rhand -20.2066 -49.9272
rfingers 7.12502
rthumb 6.14038 280.182
lclavicle -4.96962e-015 -2.46493e-014
lhumerus -14.6305 -15.8145 2.33158
lradius 27.3092
lwrist 5.87725
lhand -32.5429 -33.6212
lfingers 7.12502
lthumb -5.77286 -3.71988
rfemur -80.5313 -6.74906 4.51198
rtibia 36.002
rfoot 23.1322 -25.8221
rtoes 7.04257
lfemur 13.2163 11.6059 -3.78957
ltibia 83.956
lfoot 25.1881 2.69357
ltoes 13.2327
196
root -2.06481 22.0771 26.3337 24.8668 18.466 6.12988
lowerback -19.8466 -5.8865 2.85617
upperback -9.43028 -8.17378 1.85792
thorax 0.704867 -4.11764 -1.23763
lowerneck -9.92982 -2.93712 -8.99526
upperneck 23.2071 -2.58568 0.942358
head 9.07266 -1.89711 1.5541
rclavicle 8.97513e-014 7.95139e-016
rhumerus -8.90585 14.1094 2.98064
rradius 30.2907
rwrist -6.30914
rhand -19.9887 -52.8691
rfingers 7.12502
rthumb 6.35074 277.246
lclavicle 8.97513e-014 7.95139e-016
lhumerus -17.6978 -15.4453 2.23707
lradius 27.0375
lwrist 5.319
lhand -31.9298 -34.2859
lfingers 7.12502
lthumb -5.18097 -4.36921
rfemur -78.919 -6.33769 3.67504
rtibia 35.532
rfoot 23.7165 -25.8763
rtoes 6.27389
lfemur 13.3423 12.21 -3.49098
ltibia 85.8076
lfoot 24.0952 3.40094
ltoes 15.471
197
root -2.07289 21.9617 26.7946 25.1923 18.154 6.85498
lowerback -20.258 -5.86237 2.34792
upperback -9.61245 -8.04685 1.62695
thorax 0.755768 -4.04321 -1.20966
lowerneck -8.79844 -2.64891 -9.17482
upperneck 22.5168 -2.29397 1.01787
head 8.61207 -1.75201 1.65199
rclavicle 3.83157e-014 -7.15625e-015
rhumerus -10.4151 13.5765 2.90938
rradius 29.403
rwrist -5.21323
rhand -20.6166 -52.2597
rfingers 7.12502
rthumb 5.74456 277.838
lclavicle 3.83157e-014 -7.15625e-015
lhumerus -20.818 -14.9391 2.01147
lradius 26.8079
lwrist 4.49177
lhand -31.7553 -34.2458
lfingers 7.12502
lthumb -5.01242 -4.32506
rfemur -77.3698 -6.0673 2.8751
rtibia 35.1259
rfoot 26.0879 -22.713
rtoes -0.777369
lfemur 13.4797 12.7203 -3.18892
ltibia 87.5132
lfoot 23.2694 4.04379
ltoes 19.0793
198
root -2.07194 21.8446 27.2513 25.4327 18.0955 7.67222
lowerback -20.6997 -5.97365 1.8091
upperback -9.56477 -8.09476 1.40961
thorax 1.06897 -4.04869 -1.20528
lowerneck -9.76463 -2.94067 -8.85991
upperneck 23.1298 -2.49294 0.341539
head 9.00448 -1.90246 1.33752
rclavicle 7.20594e-015 1.82882e-014
rhumerus -12.1442 13.1955 2.82629
rradius 29.2471
rwrist -4.79361
rhand -21.2618 -50.9689
rfingers 7.12502
rthumb 5.12161 279.113
lclavicle 7.20594e-015 1.82882e-014
lhumerus -23.9389 -14.227 1.69755
lradius 26.4541
lwrist 3.83471
lhand -31.5616 -34.4847
lfingers 7.12502
lthumb -4.82547 -4.55968
rfemur -75.6291 -6.15493 2.22925
rtibia 34.7338
rfoot 26.0305 -23.0206
rtoes -0.560386
lfemur 14.0218 12.8138 -3.17077
ltibia 88.6449
lfoot 23.5754 5.20211
ltoes 24.7577
199
root -2.07625 21.7062 27.7163 25.763 17.9829 8.62606
lowerback -21.2534 -6.09175 1.03597
upperback -9.59475 -8.09494 1.13575
thorax 1.37714 -4.02546 -1.12977
lowerneck -12.8065 -3.9685 -8.14343
upperneck 25.3848 -3.38825 -1.07397
head 10.3999 -2.46858 0.556737
rclavicle 1.64991e-014 1.11319e-014
rhumerus -14.0503 13.3349 2.70796
rradius 29.433
rwrist -4.96429
rhand -20.9044 -50.2674
rfingers 7.12502
rthumb 5.46663 279.823
lclavicle 1.64991e-014 1.11319e-014
lhumerus -26.8478 -13.8069 1.30224
lradius 25.6138
lwrist 2.56673
lhand -31.6437 -36.8254
lfingers 7.12502
lthumb -4.90467 -6.90219
rfemur -73.9048 -6.1397 1.29959
rtibia 34.3444
rfoot 24.1014 -26.2798
rtoes 4.7519
lfemur 14.0886 13.1136 -3.14711
ltibia 90.0943
lfoot 22.8932 5.81884
ltoes 26.7162
200
root -2.08896 21.5492 28.1874 26.0535 17.9268 9.24891
lowerback -21.7965 -6.17 0.472502
upperback -9.63056 -8.07554 0.945694
thorax 1.65516 -3.99778 -1.07425
lowerneck -10.0532 -3.27372 -8.52753
upperneck 23.5 -2.83148 -0.322698
head 9.19224 -2.11149 1.01178
rclavicle 1.03368e-013 2.46493e-014
rhumerus -15.8041 13.1003 2.52924
rradius 29.2104
rwrist -5.10447
rhand -20.2743 -49.583
rfingers 7.12502
rthumb 6.07499 280.524
lclavicle 1.03368e-013 2.46493e-014
lhumerus -29.6094 -13.7915 0.986743
lradius 25.2378
lwrist 2.2113
lhand -31.96 -35.0712
lfingers 7.12502
lthumb -5.21009 -5.15528
rfemur -72.2323 -5.78363 0.430281
rtibia 33.9611
rfoot 21.1012 -29.8893
rtoes 11.3193
lfemur 13.8446 13.7115 -2.40254
ltibia 91.7484
lfoot 21.7217 5.67162
ltoes 26.0779
201
root -2.09412 21.3981 28.6499 26.1467 18.1488 9.73733
lowerback -21.9523 -6.18953 0.140065
upperback -10.6166 -7.99555 0.660257
thorax 0.658303 -3.96454 -1.11606
lowerneck -8.89609 -3.76427 -8.09782
upperneck 24.7813 -3.47188 -1.29149
head 9.43179 -2.51036 0.545026
rclavicle -3.01159e-014 1.51076e-014
rhumerus -18.2469 15.499 2.41568
rradius 29.7242
rwrist -6.15607
rhand -19.9878 -50.1346
rfingers 7.12502
rthumb 6.3516 279.981
lclavicle -3.01159e-014 1.51076e-014
lhumerus -32.4915 -16.8956 1.14037
lradius 25.1622
lwrist 3.17771
lhand -32.51 -34.5685
lfingers 7.12502
lthumb -5.74114 -4.66623
rfemur -70.3346 -5.72301 0.120091
rtibia 33.6291
rfoot 19.963 -31.2778
rtoes 12.8532
lfemur 13.9263 14.0549 -1.50853
ltibia 93.1025
lfoot 20.4016 5.50755
ltoes 25.7541
202
root -2.09005 21.2545 29.1056 25.8654 18.7067 10.0258
lowerback -21.7223 -6.24059 0.117325
upperback -10.3802 -8.05927 0.58333
thorax 0.793983 -3.99509 -1.19117
lowerneck -9.09159 -3.59899 -8.39558
upperneck 24.8775 -3.22926 -0.992048
head 9.50595 -2.39377 0.720857
rclavicle 3.78685e-014 9.54166e-015
rhumerus -20.2707 15.0916 2.34591
rradius 29.8407
rwrist -7.0104
rhand -19.8265 -51.0905
rfingers 7.12502
rthumb 6.50728 279.03
lclavicle 3.78685e-014 9.54166e-015
lhumerus -35.2716 -17.8174 1.81775
lradius 24.9237
lwrist 4.85495
lhand -33.2524 -34.8452
lfingers 7.12502
lthumb -6.45791 -4.96364
rfemur -67.9646 -6.08501 0.646834
rtibia 33.2399
rfoot 20.5527 -31.2641
rtoes 10.8993
lfemur 14.3806 14.0712 -0.361791
ltibia 94.0316
lfoot 19.4462 5.41038
ltoes 26.6595
203
root -2.08368 21.0963 29.5584 25.2339 19.5874 9.92804
lowerback -21.2019 -6.13659 0.609296
upperback -10.3992 -8.0122 0.469541
thorax 0.434018 -3.99513 -1.5084
lowerneck -8.83181 -3.6603 -8.86853
upperneck 25.2403 -3.35988 -0.527706
head 9.61101 -2.45739 0.947522
rclavicle -3.00165e-014 -1.43125e-014
rhumerus -22.498 14.8855 2.39044
rradius 29.5171
rwrist -7.25867
rhand -20.1901 -50.6089
rfingers 7.12502
rthumb 6.1563 279.501
lclavicle -3.00165e-014 -1.43125e-014
lhumerus -37.4205 -18.4931 2.21984
lradius 24.4917
lwrist 5.95189
lhand -33.8492 -35.083
lfingers 7.12502
lthumb -7.03404 -5.21987
rfemur -65.3193 -6.53149 1.61845
rtibia 32.8834
rfoot 19.9812 -32.3255
rtoes 11.2423
lfemur 14.663 14.0511 1.65525
ltibia 95.2598
lfoot 18.0329 5.8975
ltoes 29.9886
